# xmcd
#
# Track frame offsets:
#	150
#	13710
#	15043
#	31965
#	48489
#	64733
#	80826
#	98591
#	113350
#	124876
#
# Disc length: 1823 seconds
#
# Revision: 1
# Processed by: cddbd v1.5.1PL0 Copyright (c) Steve Scherf et al.
# Submitted via: audiograbber 1.83.01
#
DISCID=6e071d0a
DTITLE=George Strait  - The Road Less Traveled
DYEAR=2001
DGENRE=Country
TTITLE0=She'll Leave You With A Smile
TTITLE1=Run
TTITLE2=Stars On The Water
TTITLE3=Living And Living Well
TTITLE4=The Real Thing
TTITLE5=Don't Tell Me You're Not In Love
TTITLE6=Road Less Traveled
TTITLE7=The Middle Of Nowhere
TTITLE8=Good Time Charley's
TTITLE9=My Life's Been Grand
EXTD=
EXTT0=
EXTT1=
EXTT2=
EXTT3=
EXTT4=
EXTT5=
EXTT6=
EXTT7=
EXTT8=
EXTT9=
PLAYORDER=
